<svg xmlns="http://www.w3.org/2000/svg" viewBox="0 0 32 32" width="32" height="32">
  <defs>
    <linearGradient id="navy-grad" x1="0" y1="0" x2="1" y2="1">
      <stop offset="0%" stop-color="#2C6B9E" />
      <stop offset="100%" stop-color="#1F4E79" />
    </linearGradient>
  </defs>
  <!-- Background rounded rectangle -->
  <rect width="32" height="32" rx="8" fill="url(#navy-grad)" />
  <!-- Clean geometric letter G -->
  <path d="M 16 6 C 10.48 6 6 10.48 6 16 C 6 21.52 10.48 26 16 26 C 21.52 26 26 21.52 26 16 L 26 15 L 16 15 L 16 19 L 22 19 C 21.3 21.5 19 23 16 23 C 12.13 23 9 19.87 9 16 C 9 12.13 12.13 9 16 9 C 18.5 9 20.7 10.4 21.8 12.5 L 25 10.5 C 23.3 7.5 19.8 6 16 6 Z" fill="#FFFFFF" />
</svg>
